<svg width="199" height="66" viewBox="0 0 199 66" fill="none" xmlns="http://www.w3.org/2000/svg">
<path d="M78.3659 15.5436H62.1845V22.0524H78.3659V15.5436Z" fill="white"/>
<path d="M70.2769 4.00418L66.1556 8.14424L70.2769 12.2843L74.3981 8.14424L70.2769 4.00418Z" fill="white"/>
<path d="M19.4113 53.7172L15.2901 57.8573L19.4113 61.9973L23.5326 57.8573L19.4113 53.7172Z" fill="white"/>
<path d="M79.9977 26.8175V41.57H76.7636C75.9058 41.568 75.0838 41.2246 74.4776 40.615C73.8714 40.0053 73.5305 39.1791 73.5295 38.3174V30.1787L67.0485 31.8087V38.3267C67.0203 39.1689 66.6674 39.9671 66.0643 40.5529C65.4612 41.1387 64.6552 41.4661 63.8163 41.4661C62.9774 41.4661 62.1713 41.1387 61.5683 40.5529C60.9652 39.9671 60.6123 39.1689 60.584 38.3267V30.1787L54.1177 31.8087V35.0631C54.1177 35.9158 53.9505 36.7601 53.6257 37.5479C53.3009 38.3357 52.8248 39.0514 52.2246 39.6544C51.6244 40.2573 50.9118 40.7356 50.1276 41.0619C49.3434 41.3882 48.5029 41.5562 47.6541 41.5562C46.8053 41.5562 45.9648 41.3882 45.1806 41.0619C44.3964 40.7356 43.6839 40.2573 43.0837 39.6544C42.4835 39.0514 42.0074 38.3357 41.6825 37.5479C41.3577 36.7601 41.1905 35.9158 41.1905 35.0631V26.9225H41.1594L34.7095 28.5617V29.2063C34.7052 32.4804 33.4106 35.6195 31.1087 37.9374C28.8069 40.2553 25.6851 41.5633 22.4259 41.5755H1.66104L0 48.0916H22.4314C25.1016 48.0938 27.7412 47.5208 30.1723 46.4114C32.6034 45.3019 34.7695 43.6818 36.5246 41.6602C37.496 43.3405 38.8315 44.7795 40.4319 45.8706C42.0324 46.9616 43.8569 47.6768 45.77 47.963C47.6831 48.2493 49.6358 48.0992 51.4833 47.524C53.3308 46.9488 55.0258 45.9631 56.4424 44.6402C57.2577 45.6178 58.2571 46.424 59.3834 47.0126C60.5097 47.6011 61.7406 47.9604 63.0054 48.0697C64.2703 48.1791 65.5442 48.0364 66.754 47.6498C67.9638 47.2632 69.0857 46.6404 70.0553 45.8171L70.3284 45.5795C72.0985 47.1929 74.4028 48.0871 76.7929 48.0879H86.4823V25.1913L79.9977 26.8175Z" fill="white"/>
<path d="M167.105 32.9913C167.058 39.4577 165.107 45.7654 161.497 51.1197C157.888 56.474 152.782 60.6351 146.822 63.0788C140.862 65.5224 134.315 66.1392 128.007 64.8514C121.699 63.5635 115.912 60.4287 111.374 55.842C106.836 51.2553 103.752 45.422 102.509 39.0771C101.266 32.7323 101.921 26.1598 104.391 20.1881C106.86 14.2164 111.034 9.11263 116.386 5.52002C121.739 1.92741 128.03 0.0067152 134.467 0L134.5 0C143.177 0.0365669 151.485 3.53175 157.598 9.71772C163.712 15.9037 167.131 24.2745 167.105 32.9913Z" fill="url(#paint0_radial_1_10689)"/>
<path d="M144.374 65.2241C140.183 66.1455 135.852 66.2251 131.63 65.4583C127.408 64.6915 123.379 63.0935 119.775 60.7562C116.171 58.4189 113.062 55.3885 110.628 51.8394C108.195 48.2904 106.484 44.2928 105.594 40.0768C103.722 31.5605 105.284 22.646 109.938 15.2838C114.592 7.92149 121.96 2.71093 130.429 0.792167C135.023 -0.239988 139.787 -0.239988 144.381 0.792167C137.111 2.45279 130.618 6.54555 125.967 12.3994C121.316 18.2533 118.782 25.521 118.782 33.0109C118.782 40.5008 121.316 47.7684 125.967 53.6223C130.618 59.4762 137.111 63.569 144.381 65.2296L144.374 65.2241Z" fill="url(#paint1_linear_1_10689)"/>
<path d="M169.862 32.9893C169.87 39.1927 168.14 45.273 164.87 50.5355C161.601 55.7979 156.923 60.0301 151.372 62.7484C143.565 58.9069 137.582 52.1257 134.723 43.8782C131.864 35.6307 132.361 26.5831 136.104 18.701C139.29 11.9477 144.676 6.48967 151.371 3.23029C156.922 5.94828 161.599 10.1804 164.869 15.4428C168.139 20.7053 169.87 26.7858 169.862 32.9893Z" fill="url(#paint2_linear_1_10689)"/>
<path d="M183.886 32.9907C183.902 40.4792 181.38 47.75 176.736 53.6076C172.092 59.4652 165.602 63.561 158.333 65.2214C151.703 63.6807 145.71 60.1144 141.18 55.0129C136.65 49.9114 133.804 43.5254 133.035 36.733C132.265 29.9405 133.609 23.0753 136.882 17.0815C140.154 11.0877 145.195 6.25954 151.311 3.26113C153.559 2.16388 155.927 1.33497 158.368 0.791336C165.63 2.44683 172.114 6.53745 176.753 12.3895C181.392 18.2416 183.908 25.5063 183.888 32.987L183.886 32.9907Z" fill="url(#paint3_linear_1_10689)"/>
<path d="M181.184 32.9913C181.138 39.4591 179.186 45.7682 175.575 51.1231C171.964 56.4781 166.856 60.6393 160.894 63.0819C154.932 65.5246 148.384 66.1394 142.075 64.8489C135.766 63.5584 129.978 60.4203 125.442 55.8303C120.906 51.2403 117.824 45.4038 116.585 39.0568C115.346 32.7098 116.005 26.1363 118.48 20.1652C120.955 14.194 125.134 9.09256 130.49 5.50393C135.847 1.9153 142.141 0.000170161 148.58 0L148.647 0C157.315 0.0472675 165.61 3.54805 171.71 9.73366C177.811 15.9193 181.218 24.2841 181.184 32.9913Z" fill="url(#paint4_radial_1_10689)"/>
<path d="M132.907 32.9878C132.886 25.5026 135.406 18.2336 140.05 12.38C144.694 6.52644 151.185 2.43779 158.453 0.788469C154.242 -0.133511 149.89 -0.213101 145.648 0.554242C141.406 1.32159 137.355 2.92084 133.728 5.26068C130.101 7.60053 126.968 10.6351 124.508 14.1913C122.049 17.7474 120.31 21.7554 119.392 25.9864C118.475 30.2174 118.395 34.5886 119.159 38.8504C119.923 43.1122 121.515 47.1811 123.844 50.8248C126.173 54.4686 129.194 57.6157 132.734 60.0867C136.274 62.5576 140.264 64.3039 144.476 65.2259C149.07 66.2581 153.834 66.2581 158.428 65.2259C151.162 63.5615 144.677 59.4626 140.039 53.6034C135.401 47.7443 132.885 40.4738 132.907 32.9878Z" fill="url(#paint5_linear_1_10689)"/>
<path d="M198.004 32.9913C197.957 39.4577 196.006 45.7654 192.396 51.1197C188.787 56.474 183.68 60.6351 177.721 63.0788C171.761 65.5224 165.214 66.1392 158.906 64.8514C152.598 63.5635 146.81 60.4287 142.273 55.842C137.735 51.2553 134.651 45.422 133.408 39.0771C132.165 32.7323 132.82 26.1598 135.29 20.1881C137.759 14.2164 141.933 9.11263 147.285 5.52002C152.637 1.92741 158.929 0.0067152 165.366 0L165.434 0C174.107 0.0380226 182.411 3.53473 188.519 9.72134C194.627 15.908 198.039 24.278 198.005 32.9913H198.004Z" fill="url(#paint6_linear_1_10689)"/>
<defs>
<radialGradient id="paint0_radial_1_10689" cx="0" cy="0" r="1" gradientUnits="userSpaceOnUse" gradientTransform="translate(134.5 -30.9175) scale(32.6045 32.7537)">
<stop offset="0.01" stop-color="#27AAE1" stop-opacity="0"/>
<stop offset="0.32" stop-color="#1E85B4" stop-opacity="0.22"/>
<stop offset="0.65" stop-color="#05162D" stop-opacity="0.871"/>
<stop offset="0.7" stop-color="#000013"/>
<stop offset="1" stop-color="#000532" stop-opacity="0"/>
</radialGradient>
<linearGradient id="paint1_linear_1_10689" x1="104.742" y1="32.9329" x2="144.381" y2="32.9329" gradientUnits="userSpaceOnUse">
<stop stop-color="#27AAE1"/>
<stop offset="0.08" stop-color="#2699CF"/>
<stop offset="0.27" stop-color="#2474AA"/>
<stop offset="0.45" stop-color="#23588D"/>
<stop offset="0.64" stop-color="#224379"/>
<stop offset="0.82" stop-color="#21376C"/>
<stop offset="1" stop-color="#213368"/>
</linearGradient>
<linearGradient id="paint2_linear_1_10689" x1="132.888" y1="32.9298" x2="169.862" y2="32.9298" gradientUnits="userSpaceOnUse">
<stop stop-color="#27AAE1"/>
<stop offset="0.08" stop-color="#2699CF"/>
<stop offset="0.27" stop-color="#2474AA"/>
<stop offset="0.45" stop-color="#23588D"/>
<stop offset="0.64" stop-color="#224379"/>
<stop offset="0.82" stop-color="#21376C"/>
<stop offset="1" stop-color="#213368"/>
</linearGradient>
<linearGradient id="paint3_linear_1_10689" x1="132.823" y1="32.9419" x2="183.888" y2="32.9419" gradientUnits="userSpaceOnUse">
<stop offset="0.01" stop-color="#FFCB05"/>
<stop offset="0.19" stop-color="#FEC706"/>
<stop offset="0.38" stop-color="#FDBA09"/>
<stop offset="0.57" stop-color="#FAA60F"/>
<stop offset="0.76" stop-color="#F78916"/>
<stop offset="0.96" stop-color="#F26420"/>
<stop offset="1" stop-color="#F15A22"/>
</linearGradient>
<radialGradient id="paint4_radial_1_10689" cx="0" cy="0" r="1" gradientUnits="userSpaceOnUse" gradientTransform="translate(148.58 32.7538) scale(32.6045 32.7538)">
<stop offset="0.01" stop-color="#27AAE1" stop-opacity="0"/>
<stop offset="0.32" stop-color="#1E85B4" stop-opacity="0.22"/>
<stop offset="0.65" stop-color="#05162D" stop-opacity="0.871"/>
<stop offset="0.7" stop-color="#000013"/>
<stop offset="1" stop-color="#000532" stop-opacity="0"/>
</radialGradient>
<linearGradient id="paint5_linear_1_10689" x1="118.56" y1="32.9502" x2="158.453" y2="32.9502" gradientUnits="userSpaceOnUse">
<stop offset="0.01" stop-color="#FFCB05"/>
<stop offset="0.19" stop-color="#FEC706"/>
<stop offset="0.38" stop-color="#FDBA09"/>
<stop offset="0.57" stop-color="#FAA60F"/>
<stop offset="0.76" stop-color="#F78916"/>
<stop offset="0.96" stop-color="#F26420"/>
<stop offset="1" stop-color="#F15A22"/>
</linearGradient>
<linearGradient id="paint6_linear_1_10689" x1="132.795" y1="32.6227" x2="198.006" y2="32.6227" gradientUnits="userSpaceOnUse">
<stop stop-color="#213368"/>
<stop offset="0.15" stop-color="#213C71"/>
<stop offset="0.39" stop-color="#235489"/>
<stop offset="0.69" stop-color="#257BB1"/>
<stop offset="1" stop-color="#27AAE1"/>
</linearGradient>
</defs>
</svg>
